<svg xmlns="http://www.w3.org/2000/svg" viewBox="0 0 16 16"><defs><style>.icon-canvas-transparent,.icon-vs-out{fill:#f6f6f6;}.icon-canvas-transparent{opacity:0;}.icon-vs-bg{fill:#424242;}</style></defs><title>AlignCenter_16x</title><path class="icon-canvas-transparent" d="M16,16H0V0H16Z"/><polygon class="icon-vs-out" points="6 16 6 13 2 13 2 9 6 9 6 7 1 7 1 3 6 3 6 0 9 0 9 3 14 3 14 7 9 7 9 9 13 9 13 13 9 13 9 16 6 16"/><path class="icon-vs-bg" d="M8,6v4h4v2H8v3H7V12H3V10H7V6H2V4H7V1H8V4h5V6Z"/></svg>